<!-- github.svg -->
<svg viewBox="0 0 32 32" width="100%" height="100%" fill="black" xmlns="http://www.w3.org/2000/svg"><path d="M16 .397A16 16 0 0 0 0 16c0 7.073 4.584 13.065 10.937 15.188.8.147 1.093-.347 1.093-.773 0-.38-.014-1.387-.021-2.724-4.451.966-5.39-2.146-5.39-2.146-.727-1.844-1.778-2.336-1.778-2.336-1.452-.994.111-.974.111-.974 1.606.112 2.452 1.651 2.452 1.651 1.427 2.445 3.744 1.74 4.66 1.331.146-1.034.559-1.74 1.016-2.14-3.553-.404-7.288-1.778-7.288-7.912 0-1.746.62-3.176 1.646-4.291-.165-.404-.713-2.031.157-4.236 0 0 1.343-.43 4.4 1.64a15.13 15.13 0 0 1 4-.542c1.36.009 2.729.185 4 .542 3.056-2.07 4.398-1.64 4.398-1.64.872 2.205.324 3.832.159 4.236 1.028 1.115 1.646 2.545 1.646 4.291 0 6.146-3.738 7.504-7.3 7.899.575.495 1.089 1.471 1.089 2.965 0 2.14-.02 3.864-.02 4.387 0 .43.29.926 1.102.769C27.419 29.055 32 23.067 32 16A16 16 0 0 0 16 .397z"/></svg>
