<!-- linkedin.svg -->
<svg viewBox="0 0 32 32" width="100%" height="100%" fill="#0077B5" xmlns="http://www.w3.org/2000/svg"><path d="M29 0H3C1.343 0 0 1.35 0 3V29C0 30.65 1.343 32 3 32H29C30.658 32 32 30.65 32 29V3C32 1.35 30.658 0 29 0ZM9.561 27H5.667V12H9.563V27H9.561ZM7.616 10.427A2.04 2.04 0 0 1 5.572 8.388 2.043 2.043 0 1 1 7.616 10.427ZM27 27H23.11V19.591C23.11 17.894 23.053 15.799 20.801 15.799C18.503 15.799 18.176 17.622 18.176 19.481V27H14.287V12H17.995V13.747H18.05A4.075 4.075 0 0 1 21.747 12.221C26.615 12.221 27 15.073 27 18.211V27Z"/></svg>
